<mxfile host="65bd71144e">
    <diagram id="Yb95mZX2bdTmt7bUCifC" name="ページ1">
        <mxGraphModel dx="721" dy="656" grid="1" gridSize="10" guides="1" tooltips="1" connect="1" arrows="1" fold="1" page="1" pageScale="1" pageWidth="827" pageHeight="1169" math="0" shadow="0">
            <root>
                <mxCell id="0"/>
                <mxCell id="1" parent="0"/>
                <mxCell id="2" value="" style="strokeWidth=1;shadow=0;dashed=0;align=center;html=1;shape=mxgraph.mockup.containers.browserWindow;rSize=0;strokeColor=#666666;strokeColor2=#008cff;strokeColor3=#c4c4c4;mainText=,;recursiveResize=0;" vertex="1" parent="1">
                    <mxGeometry x="30" y="20" width="700" height="650" as="geometry"/>
                </mxCell>
                <mxCell id="7" value="Main" style="rounded=0;whiteSpace=wrap;fontSize=30;dashed=1;dashPattern=1 1;fillColor=none;align=left;verticalAlign=top;" vertex="1" parent="2">
                    <mxGeometry y="110" width="700" height="520" as="geometry"/>
                </mxCell>
                <mxCell id="8" value="explorer" style="rounded=0;whiteSpace=wrap;html=1;fontSize=30;dashed=1;dashPattern=1 1;fillColor=none;align=left;fontStyle=0;verticalAlign=top;" vertex="1" parent="2">
                    <mxGeometry y="210" width="700" height="420" as="geometry"/>
                </mxCell>
                <mxCell id="3" value="Page 1" style="strokeWidth=1;shadow=0;dashed=0;align=center;html=1;shape=mxgraph.mockup.containers.anchor;fontSize=17;fontColor=#666666;align=left;" vertex="1" parent="2">
                    <mxGeometry x="60" y="12" width="110" height="26" as="geometry"/>
                </mxCell>
                <mxCell id="4" value="https://www.draw.io" style="strokeWidth=1;shadow=0;dashed=0;align=center;html=1;shape=mxgraph.mockup.containers.anchor;rSize=0;fontSize=17;fontColor=#666666;align=left;" vertex="1" parent="2">
                    <mxGeometry x="130" y="60" width="250" height="26" as="geometry"/>
                </mxCell>
                <mxCell id="5" value="CraftBeerBarDataBase" style="text;html=1;resizable=0;autosize=1;align=center;verticalAlign=middle;points=[];fillColor=none;strokeColor=none;rounded=0;fontSize=30;" vertex="1" parent="2">
                    <mxGeometry x="190" y="160" width="320" height="40" as="geometry"/>
                </mxCell>
                <mxCell id="6" value="Search" style="strokeWidth=1;shadow=0;dashed=0;align=center;html=1;shape=mxgraph.mockup.forms.searchBox;strokeColor=#999999;mainText=;strokeColor2=#008cff;fontColor=#666666;fontSize=17;align=left;spacingLeft=3;" vertex="1" parent="2">
                    <mxGeometry x="240" y="240" width="240" height="30" as="geometry"/>
                </mxCell>
                <mxCell id="9" value="header" style="rounded=0;whiteSpace=wrap;html=1;fontSize=30;dashed=1;dashPattern=1 1;fillColor=none;align=left;fontStyle=0;verticalAlign=top;" vertex="1" parent="2">
                    <mxGeometry y="150" width="700" height="60" as="geometry"/>
                </mxCell>
                <mxCell id="10" value="barlist" style="rounded=0;whiteSpace=wrap;html=1;fontSize=30;dashed=1;dashPattern=1 1;fillColor=none;align=left;fontStyle=0;verticalAlign=top;" vertex="1" parent="1">
                    <mxGeometry x="190" y="310" width="410" height="340" as="geometry"/>
                </mxCell>
                <mxCell id="11" value="" style="html=1;shadow=0;dashed=0;shape=mxgraph.bootstrap.rrect;rSize=5;strokeColor=#DFDFDF;html=1;whiteSpace=wrap;fillColor=none;fontColor=#000000;verticalAlign=top;align=left;spacing=20;fontSize=14;spacingLeft=170;dashPattern=1 1;" vertex="1" parent="1">
                    <mxGeometry x="199.5" y="380" width="410" height="50" as="geometry"/>
                </mxCell>
                <mxCell id="12" value="" style="html=1;shadow=0;dashed=0;shape=mxgraph.bootstrap.leftButton;rSize=5;perimeter=none;whiteSpace=wrap;fillColor=#868E96;strokeColor=#DFDFDF;fontColor=#DEE2E6;resizeWidth=1;fontSize=18;dashPattern=1 1;" vertex="1" parent="11">
                    <mxGeometry width="80" height="50" relative="1" as="geometry"/>
                </mxCell>
                <mxCell id="13" value="barcard" style="rounded=0;whiteSpace=wrap;html=1;fontSize=30;dashed=1;dashPattern=1 1;fillColor=none;align=left;fontStyle=0;verticalAlign=top;" vertex="1" parent="11">
                    <mxGeometry width="410" height="50" as="geometry"/>
                </mxCell>
            </root>
        </mxGraphModel>
    </diagram>
</mxfile>